<?xml version="1.0" encoding="UTF-8"?>
<svg id="Layer_2" data-name="Layer 2" xmlns="http://www.w3.org/2000/svg" viewBox="0 0 12 12">
  <g id="Working_layers" data-name="Working layers">
    <g id="question-circle">
      <path id="circle" d="m6,0C2.69,0,0,2.69,0,6s2.69,6,6,6,6-2.69,6-6S9.31,0,6,0Zm0,10.98c-2.75,0-4.98-2.23-4.98-4.98S3.25,1.02,6,1.02s4.98,2.23,4.98,4.98-2.23,4.98-4.98,4.98Z"/>
      <path id="question-mark" d="m7.31,3.71c-.35-.31-.82-.48-1.31-.48s-.96.17-1.31.48c-.37.32-.57.75-.57,1.21v.09c0,.05.04.09.09.09h.56c.05,0,.09-.04.09-.09v-.09c0-.52.51-.94,1.12-.94s1.12.42,1.12.94c0,.36-.26.7-.66.85-.25.09-.46.26-.61.48-.15.22-.23.49-.23.76v.25c0,.05.04.09.09.09h.56c.05,0,.09-.04.09-.09v-.27c0-.11.04-.22.1-.32s.16-.17.26-.21c.69-.27,1.14-.88,1.14-1.55,0-.46-.2-.89-.57-1.21Zm-1.78,4.87c0,.12.05.24.14.33.09.09.21.14.33.14s.24-.05.33-.14c.09-.09.14-.21.14-.33s-.05-.24-.14-.33c-.09-.09-.21-.14-.33-.14s-.24.05-.33.14c-.09.09-.14.21-.14.33Z"/>
    </g>
  </g>
</svg>