<?xml version="1.0" encoding="UTF-8"?>
<svg id="Layer_2" data-name="Layer 2" xmlns="http://www.w3.org/2000/svg" viewBox="0 0 32 32" width="13" height="13">
  <g id="Working_layers" data-name="Working layers">
    <g id="question-circle">
      <path id="circle" d="m16,0C7.17,0,0,7.17,0,16s7.17,16,16,16,16-7.17,16-16S24.83,0,16,0Zm0,29.28c-7.33,0-13.28-5.95-13.28-13.28S8.67,2.72,16,2.72s13.28,5.95,13.28,13.28-5.95,13.28-13.28,13.28Z" fill="#D1D2D4"/>
      <path id="question-mark" d="m19.47,9.92c-.82-.74-1.9-1.2-3.04-1.29-.14-.01-.29-.02-.43-.02-1.31,0-2.56.45-3.49,1.28-.99.85-1.52,2-1.52,3.23v.24c0,.13.11.24.24.24h1.49c.13,0,.24-.11.24-.24v-.24c0-1.39,1.36-2.51,2.99-2.51s2.99,1.12,2.99,2.51c0,.96-.69,1.87-1.76,2.27-.67.24-1.23.69-1.63,1.28-.4.59-.61,1.31-.61,2.03v.67c0,.13.11.24.24.24h1.49c.13,0,.24-.11.24-.24v-.72c0-.29.11-.59.27-.85s.43-.45.69-.56c1.84-.72,3.04-2.35,3.04-4.13,0-.37-.05-.73-.14-1.08-.23-.83-.69-1.54-1.29-2.09Zm-4.73,12.96c0,.32.13.64.37.88.24.24.56.37.88.37s.64-.13.88-.37.37-.56.37-.88-.13-.64-.37-.88c-.24-.24-.56-.37-.88-.37s-.64.13-.88.37-.37.56-.37.88Z" fill="#D1D2D4"/>
    </g>
  </g>
</svg>